<svg width="100" height="100" viewBox="0 0 100 100" fill="none" xmlns="http://www.w3.org/2000/svg">
<path d="M22.5 71.7777C16.9074 71.7777 12.1296 69.7962 8.16667 65.8332C4.2037 61.8703 2.22222 57.0925 2.22222 51.4999C2.22222 45.9073 4.2037 41.1295 8.16667 37.1666C12.1296 33.2036 16.9074 31.2221 22.5 31.2221C28.0926 31.2221 32.8704 33.2036 36.8333 37.1666C40.7963 41.1295 42.7778 45.9073 42.7778 51.4999C42.7778 57.0925 40.7963 61.8703 36.8333 65.8332C32.8704 69.7962 28.0926 71.7777 22.5 71.7777ZM22.5 37.8888C18.7593 37.8888 15.5556 39.2221 12.8889 41.8888C10.2222 44.5554 8.88889 47.7591 8.88889 51.4999C8.88889 55.2406 10.2222 58.4443 12.8889 61.111C15.5556 63.7777 18.7593 65.111 22.5 65.111C26.2407 65.111 29.4444 63.7777 32.1111 61.111C34.7778 58.4443 36.1111 55.2406 36.1111 51.4999C36.1111 47.7591 34.7778 44.5554 32.1111 41.8888C29.4444 39.2221 26.2407 37.8888 22.5 37.8888Z" fill="white"/>
<path d="M43.3095 41.4443V70.9443H36.6428V32.0554H43.2539L58.865 48.2221L74.4761 32.0554H81.0872V70.9443H74.4206V41.4443L58.865 57.5554L43.3095 41.4443Z" fill="#009BDE"/>
<path d="M97.1089 42.0554V43.7221H90.4423V42.0554C90.4423 40.9073 90.0349 39.9258 89.2201 39.111C88.4052 38.2962 87.4052 37.8888 86.2201 37.8888C85.0349 37.8888 84.0349 38.2962 83.2201 39.111C82.4423 39.8888 82.0534 40.8703 82.0534 42.0554C82.0534 43.4629 82.646 44.611 83.8312 45.4999C84.6089 46.0554 85.8682 46.7221 87.6089 47.4999C90.7941 48.9443 93.2386 50.4629 94.9423 52.0554C97.0164 53.9073 98.0534 56.5554 98.0534 59.9999C98.0534 63.2962 96.9423 66.0925 94.7201 68.3888C92.5719 70.648 89.7386 71.7777 86.2201 71.7777C82.7015 71.7777 79.8682 70.648 77.7201 68.3888C75.5349 66.0925 74.4423 63.2962 74.4423 59.9999V58.3332H81.1089V59.9999C81.1089 61.4073 81.6089 62.611 82.6089 63.611C83.6089 64.611 84.8126 65.111 86.2201 65.111C87.6645 65.111 88.8867 64.611 89.8867 63.611C90.8867 62.611 91.3867 61.4073 91.3867 59.9999C91.3867 58.3332 90.7201 57.0369 89.3867 56.111C88.7571 55.6295 88.1089 55.2221 87.4423 54.8888C86.8497 54.5554 85.9793 54.1295 84.8312 53.611C81.683 52.1666 79.3126 50.574 77.7201 48.8332C76.1645 47.0554 75.3867 44.7962 75.3867 42.0554C75.3867 38.9443 76.3867 36.3703 78.3867 34.3332C80.3867 32.2591 82.9978 31.2221 86.2201 31.2221C89.5534 31.2221 92.2015 32.2036 94.1645 34.1666C96.1275 36.1295 97.1089 38.7591 97.1089 42.0554Z" fill="#F37123"/>
</svg>
